<?xml version="1.0" standalone="no"?>
<!DOCTYPE svg PUBLIC "-//W3C//DTD SVG 1.1//EN" "http://www.w3.org/Graphics/SVG/1.1/DTD/svg11.dtd" >
<svg xmlns="http://www.w3.org/2000/svg">
<metadata>
This is a custom SVG webfont generated by Font Squirrel.
Copyright   : 2003 Iconian Fonts  wwwiconiancom
Designer    : Daniel Zadorozny
</metadata>
<defs>
<font id="ReplicantRegular" horiz-adv-x="1675" >
<font-face units-per-em="2048" ascent="1638" descent="-410" />
<missing-glyph horiz-adv-x="712" />
<glyph unicode=" "  horiz-adv-x="712" />
<glyph unicode="&#x09;" horiz-adv-x="712" />
<glyph unicode="&#xa0;" horiz-adv-x="712" />
<glyph unicode="!" horiz-adv-x="970" d="M0 0v319h346v-319h-346zM0 442v955h678v-477l-326 -236l-4 -18v-224h-348z" />
<glyph unicode="&#x22;" horiz-adv-x="1101" d="M0 1143v258h346v-266l-90 -91l-16 -210h-144l-16 210l-78 93zM475 1143v258h346v-266l-92 -91l-14 -210h-148l-10 210l-80 93z" />
<glyph unicode="#" horiz-adv-x="2060" d="M0 264h197v-264h677v266h390v-266h348v268h182v346h-182v191h182v350h-182v242h-678v-242h-389v242h-348v-242h-197v-350h197v-191h-197v-350zM774 805h160v-107l78 -84h-138v84z" />
<glyph unicode="$" d="M0 0h1042q150 0 248 98q98 100 99 246v481h-682v-127l333 -348h-325h-715v-350zM4 571h682v127l-334 346h326h715v353h-1043q-147 0 -250 -103q-96 -100 -96 -241v-482zM516 -33v-332h346v332h-346zM516 1427h346v332h-346v-332z" />
<glyph unicode="%" horiz-adv-x="2228" d="M4 870v347q0 74 49 126q55 51 125 52h348q72 0 123 -52q51 -55 51 -124v-349q0 -70 -51 -125q-49 -49 -123 -49h-348q-74 0 -123 49q-51 51 -51 125zM180 1219l162 -172v-177h182v349h-344zM512 -154v459q0 96 16 158q2 10 33 50t75 93t95 113.5t97 115t80 93.5t42 49 l68 59v500l18 8h326v-448q0 -104 -11.5 -184.5t-62.5 -135.5l-428 -500v-430h-348zM1245 174v346q0 74 49 127q55 51 125 51h348q72 0 123 -51q51 -55 52 -125v-348q0 -70 -52 -125q-49 -49 -123 -49h-348q-74 0 -123 49q-51 51 -51 125zM1421 522l162 -172v-176h182v348 h-344z" />
<glyph unicode="&#x26;" horiz-adv-x="1773" d="M2 348q0 -145 102 -248q100 -100 248 -100h697q150 0 247 100q100 100 101 248v33q0 82 -54 176h164v320h-934l476 -529h-697l336 365l-336 334l697 2v348h-697q-145 0 -247.5 -102.5t-102.5 -247.5v-35q0 -80 20.5 -130.5t67.5 -97.5l84 -86l-84 -86q-25 -27 -41 -52 t-27.5 -56t-15.5 -69t-4 -87z" />
<glyph unicode="'" horiz-adv-x="628" d="M0 1143v258h346v-266l-90 -91l-16 -210h-144l-16 210l-78 93z" />
<glyph unicode="(" horiz-adv-x="1159" d="M4 340q0 -141 98 -240q94 -98 236 -98h8l6 -4h516v350h-305v428l-211 268l13 3h503v350h-518q-147 0 -250 -103q-96 -100 -96 -241v-713z" />
<glyph unicode=")" horiz-adv-x="1159" d="M2 -2h518q145 0 246 100q100 104 100 244v711q0 139 -100 239q-96 100 -231 101h-9l-8 4h-516v-353h307v-423l209 -273h-10h-506v-350z" />
<glyph unicode="*" horiz-adv-x="1046" d="M4 866v342l209 195h350v-195h209v-342l-209 -225h-350v225h-209z" />
<glyph unicode="+" horiz-adv-x="1046" d="M4 530v342h209v197h350v-197h209v-342h-209v-223h-350v223h-209z" />
<glyph unicode="," horiz-adv-x="628" d="M0 96v256h346v-352l-86 -252h-94v252h-82l-82 90z" />
<glyph unicode="-" horiz-adv-x="1021" d="M0 526h762v351h-762v-351z" />
<glyph unicode="." horiz-adv-x="628" d="M0 0v352h346v-352h-346z" />
<glyph unicode="/" horiz-adv-x="1159" d="M16 -154h349v430l407 535q51 55 72.5 117.5t21.5 167.5v456h-682l-16 -8v-842l-66 -108q-51 -63 -69 -131q-16 -59 -17 -158v-459z" />
<glyph unicode="0" d="M2 348v694q0 150 98 252q102 102 250 103h694q147 0 246 -103q102 -102 103 -247v-697q0 -147 -103 -250q-98 -100 -246 -100h-694q-150 0 -248 100q-100 101 -100 248zM352 1044l332 -342v-356h356v698h-688zM731 702q0 25 12.5 47.5t33 40t45 27.5t46.5 10 q27 0 51.5 -10t45 -27.5t33 -40t12.5 -47.5q0 -23 -12.5 -45t-33 -40.5t-45 -30t-51.5 -11.5q-25 0 -48 11.5t-43.5 30t-33 40.5t-12.5 45z" />
<glyph unicode="1" d="M4 1047v350h1036v-1075h349v-322h-1381v322h357v376l323 346l-29 3h-655z" />
<glyph unicode="2" d="M2 25v673h696l-348 -348h1041v-350h-1387zM4 879v518h1040q145 0 248 -103q100 -100 101 -241v-355h-697l348 346h-503l-119 -165h-418z" />
<glyph unicode="3" d="M4 0v516l4 4h420l117 -170h499l-346 348l346 346h-501l-115 -167h-420l-2 6v514h1041q145 0 247 -103q100 -100 101 -241v-713q0 -139 -103 -242q-98 -98 -245 -98h-1043z" />
<glyph unicode="4" d="M0 698v691l6 8h676l12 -8v-691h-694zM702 0v694l342 353v350h349v-1397h-691z" />
<glyph unicode="5" d="M2 698h696l-348 346l1041 3v350h-1387l-2 -23v-676zM4 0h1040q147 0 248 100.5t101 243.5v354h-697l348 -348h-325h-178l-111 168h-426v-518z" />
<glyph unicode="6" d="M0 0v1397h678v-678l-330 -371h699l-349 350l263 263l348 -349q47 -47 67.5 -97t20.5 -134v-33q0 -145 -105 -250q-98 -98 -245 -98h-1047z" />
<glyph unicode="7" d="M8 877v520h1039q145 0 247.5 -102.5t102.5 -250.5v-1044h-692v698l339 346h-501l-115 -167h-420z" />
<glyph unicode="8" d="M2 348q0 -147 100 -248q98 -100 248 -100h697q147 0 247 100q102 102 103 248q0 49 -4 87t-15.5 69t-28 56.5t-40.5 51.5l-84 86l84 86q47 47 67.5 97.5t20.5 130.5v35q0 145 -102.5 247.5t-247.5 102.5h-697q-147 0 -250 -103q-98 -102 -98 -247q0 -96 19.5 -152.5 t68.5 -110.5l86 -86l-86 -86q-47 -47 -67.5 -97t-20.5 -134v-33zM350 348l350 350l-2 349h349l-349 -349l349 -350h-697z" />
<glyph unicode="9" d="M4 1012v35q0 145 98 247q102 102 250 103h1049v-1397h-678v678l328 369h-699l350 -349l-264 -262l-346 348q-47 47 -67.5 97.5t-20.5 130.5z" />
<glyph unicode=":" horiz-adv-x="628" d="M0 0v352h346v-352h-346zM0 748v350h346v-350h-346z" />
<glyph unicode=";" horiz-adv-x="628" d="M0 96v256h346v-352l-86 -252h-94v252h-82l-82 90zM0 748v350h346v-350h-346z" />
<glyph unicode="&#x3c;" horiz-adv-x="983" d="M6 0h699v389q0 80 -20.5 130t-68.5 97l-84 86l84 86q49 51 69 108.5t20 156.5v348h-351v-348l-348 -351v-702z" />
<glyph unicode="=" horiz-adv-x="1046" d="M0 268v336h762v-336h-762zM0 823v332h762v-332h-762z" />
<glyph unicode="&#x3e;" horiz-adv-x="983" d="M4 0v389q0 80 20.5 130t67.5 97l84 86l-84 86q-49 51 -68.5 108.5t-19.5 156.5v348h350v-348l348 -351v-702h-698z" />
<glyph unicode="?" d="M6 891l2 -14h420l115 167h501l-352 -350v-215h697v572q0 158 -99 249q-49 47 -108.5 72t-134.5 25h-1041v-506zM586 0h346v352h-346v-352z" />
<glyph unicode="@" horiz-adv-x="1792" d="M4 344q0 -141 98 -242q98 -102 248 -102h1043v299h-1041v795h824v-617h335v570q0 145 -102 247q-96 96 -225 103h-834q-150 0 -248 -101q-98 -98 -98 -239v-713zM420 350h350v346l172 -172v-174h174v522q0 74 -51 125.5t-123 51.5h-346q-76 0 -125 -54q-51 -49 -51 -123 v-522zM596 872h172v-172z" />
<glyph unicode="A" d="M2 0h350v485h359v209l329 -344v-350h353v1047q0 145 -103 247q-98 102 -248 103h-694q-145 0 -250 -105q-96 -96 -96 -239v-1053zM352 834v210h359v-210h-359z" />
<glyph unicode="B" d="M-2 0v1397h1049q145 0 247.5 -102.5t102.5 -247.5v-35q0 -80 -20.5 -130.5t-67.5 -97.5l-84 -86l84 -86q25 -27 41 -52t27.5 -56t15.5 -69t4 -87q0 -145 -103 -248q-100 -100 -247 -100h-1049zM348 348h699l-349 350l349 349h-392v-342z" />
<glyph unicode="C" d="M4 340q0 -141 98 -240q98 -100 248 -100h1043v352h-711v350l-330 342h1041v353h-1043q-147 0 -250 -103q-96 -100 -96 -241v-713z" />
<glyph unicode="D" d="M2 2l10 -2h1032q147 0 246 100q100 98 101 244v711q0 141 -101 239q-98 102 -246 103h-1040l-2 -13v-1382zM352 1044h688v-694h-315l-43 2v350z" />
<glyph unicode="E" d="M4 340q0 -141 98 -240q98 -100 248 -100h1043v352h-711v176h412v351h-412v-177l-330 342h1041v353h-1043q-147 0 -250 -103q-96 -100 -96 -241v-713z" />
<glyph unicode="F" d="M4 0h678v528h412v351h-412v-177l-330 342h1041v353h-1043q-147 0 -250 -103q-96 -100 -96 -241v-1053z" />
<glyph unicode="G" d="M-2 348v696q0 145 100 250q102 102 250 103h1041v-353h-1041l330 -342v-350l358 350h353v-702h-1041q-150 0 -250 98q-100 107 -100 250z" />
<glyph unicode="H" d="M0 0h672l12 2v528h360v-530h349v1393h-351v-510l-4 -2h-354v-179l-328 345v342l-6 8h-350v-1397z" />
<glyph unicode="I" d="M4 1047v350h1376l6 -2v-351h-344v-722h347v-322h-1381v322h357v376l323 346l-29 3h-655z" />
<glyph unicode="J" d="M8 0h1039q147 0 247 100q102 102 103 250v1047h-692v-699l339 -348h-501l-115 170h-420v-520z" />
<glyph unicode="K" d="M-2 0h680v682l-330 365v350h-348zM705 694l342 -346v-348h350v348q0 49 -4 87t-15.5 69t-28 56.5t-40.5 51.5l-84 86l84 86q47 47 67.5 97.5t20.5 130.5v385h-692v-703z" />
<glyph unicode="L" d="M0 348q0 -145 102 -248q98 -100 248 -100h1043v350h-711v352l-326 353v334l-6 8h-350v-1049z" />
<glyph unicode="M" horiz-adv-x="2373" d="M0 0h682v702l-330 342h688l2 -1034l2 -10h349v1047h348v-1037l2 -10h348v1047q0 147 -100 247q-102 102 -248 103h-1393q-147 0 -250 -103q-96 -100 -100 -254v-1040z" />
<glyph unicode="N" d="M0 0v1040q2 150 100 254q102 102 250 103h694q147 0 246 -103q102 -102 103 -247v-1047h-357v1044h-684l330 -342v-702h-682z" />
<glyph unicode="O" d="M2 348q0 -147 100 -248q98 -100 248 -100h694q147 0 246 98q102 109 103 250v694q0 150 -103 252q-98 102 -246 103h-694q-147 0 -250 -103q-98 -102 -98 -247v-699zM354 346v698h688l-327 -342v-356h-361z" />
<glyph unicode="P" d="M0 0h678v678l-330 369h699l-349 -349l263 -262l348 348q47 47 67.5 97.5t20.5 130.5v35q0 145 -102.5 247.5t-247.5 102.5h-1047v-1397z" />
<glyph unicode="Q" horiz-adv-x="1683" d="M2 350v697q0 145 98 247q102 102 250 103h694q147 0 246 -103q100 -98 101 -241v-717l188 -141l-330 -328l-205 133h-694q-150 0 -248 100q-100 100 -100 250zM354 350l359 -4v356l329 342h-688v-694z" />
<glyph unicode="R" d="M-2 0v1397h1049q145 0 247.5 -102.5t102.5 -247.5v-35q0 -80 -20.5 -130.5t-67.5 -97.5l-84 -86l84 -86q25 -27 41 -52t27.5 -56t15.5 -69t4 -87v-348h-350v348l-349 350l349 349h-699l332 -369v-678h-682z" />
<glyph unicode="S" d="M0 0h1042q150 0 248 98q98 100 99 246v481h-682v-127l333 -348h-1040v-350zM4 571h682v127l-334 346h1041v353h-1043q-147 0 -250 -103q-96 -100 -96 -241v-482z" />
<glyph unicode="T" d="M4 1047v350h1389v-350h-357v-1047h-671v698l323 346l-29 3h-655z" />
<glyph unicode="U" d="M0 356q2 -156 102 -258q98 -98 248 -98h694q145 0 250 98q98 104 99 250v1045h-357v-1043h-684l330 344v703h-682v-1041z" />
<glyph unicode="V" d="M0 698v699h348v-699l350 -288l349 288h-340v699h690v-699q0 -92 -19.5 -155.5t-68.5 -106.5l-525 -436h-172l-524 436q-51 41 -69.5 105.5t-18.5 156.5z" />
<glyph unicode="W" horiz-adv-x="2373" d="M0 348q0 -145 98 -250q104 -98 250 -98h1395q145 0 246 100q98 98 102 256v1041h-680v-703l330 -344h-690l-2 1034l-2 13h-349v-1049h-346v1036l-4 13h-348v-1049z" />
<glyph unicode="X" d="M2 0v348q0 49 4 87t15.5 69t28 56.5t40.5 51.5l86 86l-86 86q-45 49 -66.5 99.5t-21.5 132.5v381h692v-695l-344 -354v-348h-348zM700 8v690l347 349v350h350v-350q0 -96 -19.5 -152.5t-68.5 -110.5l-84 -86l84 -86q45 -47 66.5 -97t21.5 -134v-381h-684z" />
<glyph unicode="Y" d="M2 1047v350h348v-350l320 -355h-437l-57 6l-86 86q-49 53 -68.5 110t-19.5 153zM547 0v373q0 88 19.5 139t66.5 100l65 86v701h699v-383q0 -82 -23.5 -131t-68.5 -99l-410 -438v-348h-348z" />
<glyph unicode="Z" d="M0 1044v353h1042l347 -353v-473h-682v127l333 346h-1040zM4 352v473h682v-127l-334 -348h1041v-350h-1043z" />
<glyph unicode="[" horiz-adv-x="1159" d="M2 -2h866v350h-305v428l-211 268l13 3h503v350h-862l-4 -4v-1395z" />
<glyph unicode="\" horiz-adv-x="1159" d="M12 1128q0 -61 5.5 -107t15.5 -83t27.5 -68.5t41.5 -62.5l430 -518l-16 -443h350v430q0 59 -4 106.5t-14 80.5q-10 35 -26.5 67.5t-43.5 63.5l-65 108v842l-15 8h-686v-424z" />
<glyph unicode="]" horiz-adv-x="1159" d="M2 -2h864l2 4v1395h-866v-353h307v-423l209 -273h-10h-506v-350z" />
<glyph unicode="^" horiz-adv-x="1046" d="M4 858l209 -225l109 459l450 110l-209 195h-559v-539z" />
<glyph unicode="_" horiz-adv-x="1388" d="M4 -63v-314h1389v314h-1389z" />
<glyph unicode="`" horiz-adv-x="774" d="M0 1819l295 -320h205l-148 320h-352z" />
<glyph unicode="a" d="M-2 0h698v698l-348 346h344v-346l348 -350v-348h349v1047q0 147 -101 247q-98 102 -248 103h-692q-150 0 -250 -105q-100 -100 -100 -245v-1047z" />
<glyph unicode="b" d="M-2 0v1397h1049q145 0 247.5 -102.5t102.5 -247.5v-35q0 -80 -20.5 -130.5t-67.5 -97.5l-84 -86l84 -86q25 -27 41 -52t27.5 -56t15.5 -69t4 -87q0 -145 -103 -248q-100 -100 -247 -100h-1049zM348 348h699l-349 350l349 349h-392v-342z" />
<glyph unicode="c" d="M4 340q0 -141 98 -240q98 -100 248 -100h1043v352h-711v350l-330 342h1041v353h-1043q-147 0 -250 -103q-96 -100 -96 -241v-713z" />
<glyph unicode="d" d="M2 0h1042q147 0 246 100q102 102 103 248v696q0 147 -103 250q-98 102 -246 103h-1042v-1397zM348 352v686l2 6h692l-329 -342v-350h-365z" />
<glyph unicode="e" d="M4 340q0 -141 98 -240q98 -100 248 -100h1043v504l-4 16h-418l-115 -170h-504l348 348l-348 346h504l115 -167h418l4 10v510h-1043q-147 0 -250 -103q-96 -100 -96 -241v-713z" />
<glyph unicode="f" d="M4 0h346v350l350 348l-348 346h504l115 -167h418l4 10v510h-1043q-147 0 -250 -103q-96 -100 -96 -237v-1057z" />
<glyph unicode="g" d="M-2 348v696q0 145 100 250q102 102 250 103h1041v-353h-1041l330 -342v-350h362v350h349v-702h-1041q-150 0 -250 98q-100 107 -100 250z" />
<glyph unicode="h" d="M-2 0h350v348l350 350l-2 699h-690l-8 -8v-1389zM702 0h691v1397h-349v-350l-342 -353v-694z" />
<glyph unicode="i" horiz-adv-x="970" d="M0 0v698l326 346l4 33v320h348v-1397h-678z" />
<glyph unicode="j" d="M4 348q0 -147 100 -248q98 -100 248 -100h1049v1397h-678v-678l328 -371h-699l174 176l-262 260l-172 -172q-47 -47 -67.5 -97t-20.5 -134v-33z" />
<glyph unicode="k" d="M-2 1397h680v-676l-330 -373v-348h-348zM698 698l349 349v350h350v-350q0 -96 -19.5 -152.5t-68.5 -110.5l-84 -86l84 -86q45 -47 66.5 -97t21.5 -134v-381h-350v215v133z" />
<glyph unicode="l" d="M2 350v1047h692v-699l-342 -348h504l115 170h418l4 -4v-516h-1043q-150 0 -248 100q-100 100 -100 250z" />
<glyph unicode="m" d="M0 -2h520v424l-170 119v501l348 -348l346 348v-503l-167 -117v-424h520v1046q0 143 -103 250q-94 98 -227 99h-743q-127 0 -224 -101q-100 -100 -100 -248v-1046z" />
<glyph unicode="n" d="M0 0v1040q2 150 100 254q102 102 250 103h694q147 0 246 -103q102 -102 103 -247v-1047h-349l-2 10v1034h-690l330 -342v-702h-682z" />
<glyph unicode="o" d="M2 348q0 -147 100 -248q98 -100 248 -100h694q147 0 246 100q102 102 103 250v697q0 145 -103 247q-98 102 -246 103h-694q-147 0 -250 -103q-98 -102 -98 -252v-694zM352 1044h688v-694h-362v352z" />
<glyph unicode="p" d="M0 0h678v678l-330 369h699l-349 -349l263 -262l348 348q47 47 67.5 97.5t20.5 130.5v35q0 145 -102.5 247.5t-247.5 102.5h-1047v-1397z" />
<glyph unicode="q" horiz-adv-x="1746" d="M2 350v697q0 145 98 247q102 102 250 103h694q147 0 246 -103q100 -98 101 -241v-523l188 -104v-426h-1229q-150 0 -248 100q-100 100 -100 250zM354 350l359 -4v356l329 342h-688v-694z" />
<glyph unicode="r" d="M2 0h692v698l-342 346h504l115 -167h418l4 10v510h-1043q-147 0 -250 -103q-98 -102 -98 -250v-1044z" />
<glyph unicode="s" d="M4 698h696l-348 346h504l115 -167h418l6 14v506h-1045q-147 0 -250 -103q-96 -100 -96 -241v-355zM8 0h1039q147 0 247.5 100.5t100.5 243.5v354h-697l346 -348h-501l-115 170h-420v-520z" />
<glyph unicode="t" d="M4 1047h356v-1047h672v698l-325 346l30 3h656v350h-1389v-350z" />
<glyph unicode="u" d="M0 348v1049h352v-45v-1002h688l-329 344v703h682v-1041q-2 -156 -103 -258q-98 -98 -248 -98h-694q-145 0 -250 98q-98 105 -98 250z" />
<glyph unicode="v" d="M0 698q0 -92 19.5 -155.5t68.5 -106.5l524 -436h172l525 436q51 41 69.5 105.5t18.5 156.5v699h-350v-699l-349 -288l-350 288h340v699h-688v-699z" />
<glyph unicode="w" d="M-2 326l2 28v1047h520v-426l-170 -117v-502l348 349l346 -349v504l-167 115v426h520v-1047q0 -147 -103 -254q-92 -94 -225 -94h-747q-127 0 -222 96q-47 47 -74.5 102.5t-27.5 121.5z" />
<glyph unicode="x" d="M2 0v381q0 84 20.5 134t67.5 97l86 86l-86 86q-49 53 -68.5 109.5t-19.5 153.5v350h348v-350l344 -353v-694h-692zM698 698v703h699v-389q0 -80 -20.5 -130.5t-67.5 -97.5l-84 -86l84 -86q25 -27 41 -52t27.5 -56t15.5 -69t4 -87v-348h-350v348z" />
<glyph unicode="y" d="M2 1047v350h348v-350l320 -355h-437l-57 6l-86 86q-49 53 -68.5 110t-19.5 153zM547 0v373q0 88 19.5 139t66.5 100l67 86v699h697v-381q0 -82 -23.5 -131t-68.5 -99l-410 -438v-348h-348z" />
<glyph unicode="z" d="M4 352v346h696l-348 -348h504l115 170h418l2 -10v-510h-1041zM4 891v506h1043l348 -353v-346h-697l346 346h-501l-115 -167h-420z" />
<glyph unicode="{" horiz-adv-x="2709" d="M0 0h682v702l-330 342h688l-4 -1044h357v1047h348v-1037l2 -10h686v705l-338 342q0 147 -100 247q-102 102 -248 103h-1393q-147 0 -250 -103q-96 -100 -100 -254v-1040z" />
<glyph unicode="|" horiz-adv-x="970" d="M-4 698l326 -346l4 -33v-319h348v1397h-678v-699z" />
<glyph unicode="}" horiz-adv-x="2709" d="M0 692l338 -344q0 -147 102 -248q100 -100 248 -100h1393q147 0 246 98q98 102 102 258v1041h-678v-703l328 -344h-690l-3 1034l-2 13h-348v-1049h-344v1036l-4 13h-688v-705z" />
<glyph unicode="~" horiz-adv-x="1267" d="M6 549l189 319h354l96 -147l103 147h276l-188 -319h-373l-84 147l-103 -147h-270z" />
<glyph unicode="&#xa1;" horiz-adv-x="970" d="M-2 0v477l326 236l4 18v223h348v-954h-678zM330 1077v320h346v-320h-346z" />
<glyph unicode="&#xa2;" d="M4 340v713q0 139 96 241q102 102 250 103h1043v-353h-1041l330 -342v-350h711v-352h-1043q-150 0 -248 100q-98 99 -98 240zM516 -33h346v-332h-346v332zM516 1427v332h346v-332h-346z" />
<glyph unicode="&#xa3;" d="M0 0h350v698l348 289l351 -289h-340v-698h688v698q0 92 -19.5 156t-68.5 107l-525 436h-172l-524 -436q-51 -41 -69.5 -105.5t-18.5 -157.5v-698z" />
<glyph unicode="&#xa4;" d="M2 0h692v279h2q197 0 348 69h3v-348h350v348q0 49 -10.5 87t-27 69t-39 57.5t-46.5 52.5q14 41 14 91q0 43 -12 86q47 47 84 94t37 127v389h-699v-279h-2q-98 0 -185 -18.5t-161 -50.5v344h-348v-350q0 -47 11.5 -84t29.5 -67t40.5 -55.5t45.5 -52.5q-12 -43 -12 -88 q0 -51 14 -92l-46 -46q-24 -24 -42 -49.5t-29.5 -58t-11.5 -73.5v-381zM322 694q0 41 28.5 77t79.5 62.5t119.5 42t146.5 15.5t146.5 -15.5t120 -42t81 -62.5t29.5 -77t-29.5 -76.5t-81 -61.5t-120 -41t-146.5 -15t-146.5 15t-119.5 41t-79.5 61.5t-28.5 76.5z" />
<glyph unicode="&#xa5;" d="M2 1047q0 -96 19.5 -152.5t68.5 -110.5l86 -86l57 -6h437l-320 355v350h-348v-350zM82 61h465v-61h348v61h481v238h-481v49l37 41h444v238h-221l150 159q45 49 68.5 98.5t23.5 131.5v381h-697v-699l-57 -71h-561v-238h465v-90h-465v-238z" />
<glyph unicode="&#xa6;" horiz-adv-x="970" d="M10 698l312 -346l4 -33v-450h344v1661h-660v-832z" />
<glyph unicode="&#xa7;" d="M4 698h299v-2q0 -96 31 -176h-326v-520h1039q147 0 247.5 100.5t100.5 243.5v354h-322q0 90 -33 179h349l6 14v506h-1045q-147 0 -250 -103q-96 -102 -96 -241v-355zM354 1130h168q-6 -6 -23.5 -25.5t-38 -42t-36.5 -42t-23 -25.5zM530 702q0 51 13.5 96.5t35 79t51 53 t64.5 19.5q33 0 63.5 -19.5t52 -53t35 -78.5t13.5 -97q0 -51 -13.5 -96t-35 -78.5t-52 -53t-63.5 -19.5q-35 0 -64.5 19.5t-51 53t-35 78.5t-13.5 96zM862 281q6 6 23.5 24.5t37 39t37 38.5t23.5 27l53 -129h-174z" />
<glyph unicode="&#xa8;" horiz-adv-x="1052" d="M0 1499v320h346v-320h-346zM442 1499v320h346v-320h-346z" />
<glyph unicode="&#xa9;" d="M2 348v694q0 150 98 252q102 102 250 103h694q147 0 246 -103q102 -102 103 -247v-697q0 -147 -103 -250q-98 -100 -246 -100h-694q-150 0 -248 100q-100 101 -100 248zM352 348l688 2v694h-688v-696zM449 563v250q0 51 32 84q37 37 88 37h365v-123h-365l117 -121v-123 h248v-123h-365q-49 0 -88 35q-32 33 -32 84z" />
<glyph unicode="&#xaa;" horiz-adv-x="921" d="M4 705v522q0 74 51 123q49 53 125 53h346q72 0 123 -51.5t51 -124.5v-522h-174v174l-174 174v174h-172l174 -174v-348h-350z" />
<glyph unicode="&#xab;" horiz-adv-x="978" d="M0 500v391l319 201v-291l-147 -103l147 -102v-293zM385 500v391l320 201v-291l-148 -103l148 -102v-293z" />
<glyph unicode="&#xac;" horiz-adv-x="1046" d="M0 526h412v-299h346v650h-758v-351z" />
<glyph unicode="&#xad;" horiz-adv-x="878" d="M0 526v351h594v-351h-594z" />
<glyph unicode="&#xae;" d="M2 348v694q0 150 98 252q102 102 250 103h694q147 0 246 -103q102 -102 103 -247v-697q0 -147 -103 -250q-98 -100 -246 -100h-694q-150 0 -248 100q-100 101 -100 248zM352 348l688 2v694h-688v-696zM449 453v489h366q51 0 86 -37q37 -35 37 -86v-12q0 -29 -7 -46.5 t-24 -33.5l-30 -31l30 -28q16 -18 23.5 -38t7.5 -55v-122h-123v122l-123 121l123 123h-244l115 -129v-237h-237z" />
<glyph unicode="&#xaf;" horiz-adv-x="1388" d="M0 1462v314h1389v-314h-1389z" />
<glyph unicode="&#xb0;" horiz-adv-x="942" d="M6 872q0 -70 51 -124q49 -49 123 -50h348q74 0 123 50q51 51 51 124v347q0 74 -49 127q-55 51 -125 51h-348q-72 0 -123 -51q-51 -55 -51 -125v-349zM182 872v349h344l-161 -172v-177h-183z" />
<glyph unicode="&#xb1;" horiz-adv-x="1046" d="M0 -6h762v350h-762v-350zM4 858h209v-223h350v223h209v342h-209v197h-350v-197h-209v-342z" />
<glyph unicode="&#xb2;" horiz-adv-x="921" d="M-2 717l2 -12h692v174h-520l174 174h-348v-336zM0 1143h209l59 84h252l-174 -174h348v178q0 70 -51 121t-123 51h-520v-260z" />
<glyph unicode="&#xb3;" horiz-adv-x="915" d="M0 705h520q74 0 123 49q51 49 51 120v357q0 68 -49 121q-55 51 -125 51h-520v-258l2 -2h209l57 84h252l-174 -174l174 -174h-250l-59 86h-209l-2 -2v-258z" />
<glyph unicode="&#xb4;" horiz-adv-x="774" d="M0 1499l147 320h353l-295 -320h-205z" />
<glyph unicode="&#xb5;" d="M0 1016v381h684l12 -8v-691l68 -86q47 -49 66.5 -100t19.5 -139v-373h-348v348l-410 438q-23 25 -40 48.5t-28.5 50t-17.5 58.5t-6 73zM727 692l320 355v350h348v-350q0 -96 -19.5 -152.5t-68.5 -110.5l-86 -86l-58 -6h-436z" />
<glyph unicode="&#xb6;" d="M0 0h350v1047h699l-332 -369v-678h680v1397h-1047q-145 0 -247.5 -102.5t-102.5 -247.5v-35q0 -80 20.5 -130.5t67.5 -97.5l84 -86l-84 -86q-25 -27 -41 -52t-27.5 -56t-15.5 -69t-4 -87v-348z" />
<glyph unicode="&#xb7;" horiz-adv-x="628" d="M0 477h346v350h-346v-350z" />
<glyph unicode="&#xb8;" horiz-adv-x="440" d="M-303 -176h221l98 104l2 121h121l60 -192v-269h-502v236z" />
<glyph unicode="&#xb9;" horiz-adv-x="935" d="M0 1219h342l-162 -175v-188h-178v-160h690v160h-174v539h-518v-176z" />
<glyph unicode="&#xba;" horiz-adv-x="942" d="M6 872v347q0 74 49 127q55 51 125 51h348q72 0 123 -51q51 -55 51 -125v-349q0 -70 -51 -124q-49 -49 -123 -50h-348q-74 0 -123 50q-51 50 -51 124zM182 1221l162 -172v-177h182v349h-344z" />
<glyph unicode="&#xbb;" horiz-adv-x="978" d="M0 303l319 197v391l-319 201v-291l147 -103l-147 -102v-293zM385 303l320 197v391l-320 201v-291l147 -103l-147 -102v-293z" />
<glyph unicode="&#xbc;" horiz-adv-x="2373" d="M0 1227h342l-162 -174v-189h-178v-159h690v159h-174v539h-518v-176zM590 -154h348v430l428 500q51 55 62.5 135t11.5 185v448h-326l-18 -8v-500l-68 -59q-8 -10 -42 -49t-80 -93.5t-97 -115t-95 -113.5t-75 -93t-33 -50q-16 -61 -16 -158v-459zM1397 348h346v346l-6 4 h-338l-2 -4v-346zM1747 0h346v698h-174v-176l-172 -176v-346z" />
<glyph unicode="&#xbd;" horiz-adv-x="2363" d="M0 1227h342l-162 -174v-189h-178v-159h690v159h-174v539h-518v-176zM590 -154h348v430q123 143 209 250t141 187t86 136t45.5 99t17.5 78t3 70v448h-326l-18 -8v-500l-68 -59q-8 -10 -42 -49t-80 -93.5t-97 -115t-95 -113.5t-75 -93t-33 -50q-16 -61 -16 -158v-459z M1382 12l2 -12h693v174h-521l175 174h-349v-336zM1384 438h209l60 84h252l-174 -174h348v178q0 70 -51.5 121t-122.5 51h-521v-260z" />
<glyph unicode="&#xbe;" horiz-adv-x="2291" d="M-2 700h520q74 0 123 50q51 49 51 120v357q0 68 -49 121q-55 51 -125 51h-520v-258l2 -2h209l57 84h252l-174 -174l174 -175h-250l-59 87h-209l-2 -3v-258zM508 -154h348v430l428 500q51 55 62.5 135t11.5 185v448h-326l-18 -8v-500l-68 -59q-8 -10 -42 -49t-80 -93.5 t-97 -115t-95 -113.5t-75 -93t-33 -50q-16 -61 -16 -158v-459zM1315 348h346v346l-6 4h-338l-2 -4v-346zM1665 0h346v698h-174v-176l-172 -176v-346z" />
<glyph unicode="&#xbf;" d="M4 346q0 -158 98 -250q49 -47 108.5 -71.5t135.5 -24.5h1040v506l-2 14h-419l-115 -168h-502l352 350v216h-696v-572zM461 1044h346v353h-346v-353z" />
<glyph unicode="&#xc0;" d="M2 0v1053q0 143 96 239q104 104 250 105h694q150 0 248 -103q102 -102 103 -247v-1047h-353v350l-329 344v-209h-359v-485h-350zM352 834h359v210h-359v-210zM418 1819h352l148 -320h-205z" />
<glyph unicode="&#xc1;" d="M2 0v1053q0 143 96 239q104 104 250 105h694q150 0 248 -103q102 -102 103 -247v-1047h-353v350l-329 344v-209h-359v-485h-350zM352 834h359v210h-359v-210zM475 1499l148 320h352l-295 -320h-205z" />
<glyph unicode="&#xc2;" d="M2 0v1053q0 143 96 239q104 104 250 105h694q150 0 248 -103q102 -102 103 -247v-1047h-353v350l-329 344v-209h-359v-485h-350zM303 1499l201 320h391l197 -320h-293l-103 148l-102 -148h-291zM352 834h359v210h-359v-210z" />
<glyph unicode="&#xc3;" d="M2 0v1053q0 143 96 239q104 104 250 105h694q150 0 248 -103q102 -102 103 -247v-1047h-353v350l-329 344v-209h-359v-485h-350zM195 1499l188 320h354l97 -148l102 148h276l-188 -320h-373l-84 148l-102 -148h-270zM352 834h359v210h-359v-210z" />
<glyph unicode="&#xc4;" d="M2 0v1053q0 143 96 239q104 104 250 105h694q150 0 248 -103q102 -102 103 -247v-1047h-353v350l-329 344v-209h-359v-485h-350zM303 1499v320h346v-320h-346zM352 834h359v210h-359v-210zM745 1499v320h347v-320h-347z" />
<glyph unicode="&#xc5;" d="M2 0v1053q0 143 96 239q104 104 250 105h694q150 0 248 -103q102 -102 103 -247v-1047h-353v350l-329 344v-209h-359v-485h-350zM352 834h359v210h-359v-210zM524 1499v320h346v-320h-346zM631 1597h133v132h-133v-132z" />
<glyph unicode="&#xc6;" horiz-adv-x="2732" d="M2 0h350v485h359v209l329 -344v-350h1393v352h-711v176h412v351h-412v-177l-329 342h1040v353h-1042q-98 0 -174 -45q-76 45 -175 45h-694q-145 0 -250 -105q-96 -96 -96 -239v-1053zM352 834v210h359v-210h-359z" />
<glyph unicode="&#xc7;" d="M4 340q0 -141 98 -240q98 -100 248 -100h379v-72l-98 -104h-221v-236h501v269l-45 143h527v352h-711v350l-330 342h1041v353h-1043q-147 0 -250 -103q-96 -102 -96 -241v-713z" />
<glyph unicode="&#xc8;" d="M4 340v713q0 139 96 241q102 102 250 103h1043v-353h-1041l330 -342v177h412v-351h-412v-176h711v-352h-1043q-150 0 -248 100q-98 99 -98 240zM418 1819h352l148 -320h-205z" />
<glyph unicode="&#xc9;" d="M4 340v713q0 139 96 241q102 102 250 103h1043v-353h-1041l330 -342v177h412v-351h-412v-176h711v-352h-1043q-150 0 -248 100q-98 99 -98 240zM475 1499l148 320h352l-295 -320h-205z" />
<glyph unicode="&#xca;" d="M4 340v713q0 139 96 241q102 102 250 103h1043v-353h-1041l330 -342v177h412v-351h-412v-176h711v-352h-1043q-150 0 -248 100q-98 99 -98 240zM303 1499l201 320h391l197 -320h-293l-103 148l-102 -148h-291z" />
<glyph unicode="&#xcb;" d="M4 340v713q0 139 96 241q102 102 250 103h1043v-353h-1041l330 -342v177h412v-351h-412v-176h711v-352h-1043q-150 0 -248 100q-98 99 -98 240zM303 1499v320h346v-320h-346zM745 1499v320h347v-320h-347z" />
<glyph unicode="&#xcc;" d="M4 1047h655l29 -3l-323 -346v-376h-357v-322h1381v322h-347v722h344v351l-6 2h-1376v-350zM418 1819l295 -320h205l-148 320h-352z" />
<glyph unicode="&#xcd;" d="M4 1047h655l29 -3l-323 -346v-376h-357v-322h1381v322h-347v722h344v351l-6 2h-1376v-350zM475 1499h205l295 320h-352z" />
<glyph unicode="&#xce;" d="M4 1047h655l29 -3l-323 -346v-376h-357v-322h1381v322h-347v722h344v351l-6 2h-1376v-350zM303 1499h291l102 148l103 -148h293l-197 320h-391z" />
<glyph unicode="&#xcf;" d="M4 1047h655l29 -3l-323 -346v-376h-357v-322h1381v322h-347v722h344v351l-6 2h-1376v-350zM303 1499h346v320h-346v-320zM745 1499h347v320h-347v-320z" />
<glyph unicode="&#xd0;" horiz-adv-x="1861" d="M0 526h188v-524l11 -2h1032q147 0 246 100q100 98 100 244v711q0 141 -100 239q-98 102 -246 103h-1041l-2 -13v-507h-188v-351zM539 1044h688v-694h-359v176h162v351h-330z" />
<glyph unicode="&#xd1;" d="M0 0v1040q2 150 100 254q102 102 250 103h694q147 0 246 -103q102 -102 103 -247v-1047h-357v1044h-684l330 -342v-702h-682zM195 1499l188 320h354l97 -148l102 148h276l-188 -320h-373l-84 148l-102 -148h-270z" />
<glyph unicode="&#xd2;" d="M2 348q0 -147 100 -248q98 -100 248 -100h694q147 0 246 98q102 109 103 250v694q0 150 -103 252q-98 102 -246 103h-694q-147 0 -250 -103q-98 -102 -98 -247v-699zM354 346v698h688l-327 -342v-356h-361zM418 1819l295 -320h205l-148 320h-352z" />
<glyph unicode="&#xd3;" d="M2 348q0 -147 100 -248q98 -100 248 -100h694q147 0 246 98q102 109 103 250v694q0 150 -103 252q-98 102 -246 103h-694q-147 0 -250 -103q-98 -102 -98 -247v-699zM354 346v698h688l-327 -342v-356h-361zM475 1499h205l295 320h-352z" />
<glyph unicode="&#xd4;" d="M2 348q0 -147 100 -248q98 -100 248 -100h694q147 0 246 98q102 109 103 250v694q0 150 -103 252q-98 102 -246 103h-694q-147 0 -250 -103q-98 -102 -98 -247v-699zM303 1499h291l102 148l103 -148h293l-197 320h-391zM354 346v698h688l-327 -342v-356h-361z" />
<glyph unicode="&#xd5;" d="M2 348q0 -147 100 -248q98 -100 248 -100h694q147 0 246 98q102 109 103 250v694q0 150 -103 252q-98 102 -246 103h-694q-147 0 -250 -103q-98 -102 -98 -247v-699zM195 1499h270l102 148l84 -148h373l188 320h-276l-102 -148l-97 148h-354zM354 346v698h688l-327 -342 v-356h-361z" />
<glyph unicode="&#xd6;" d="M2 348q0 -147 100 -248q98 -100 248 -100h694q147 0 246 98q102 109 103 250v694q0 150 -103 252q-98 102 -246 103h-694q-147 0 -250 -103q-98 -102 -98 -247v-699zM303 1499h346v320h-346v-320zM354 346v698h688l-327 -342v-356h-361zM745 1499h347v320h-347v-320z" />
<glyph unicode="&#xd7;" horiz-adv-x="987" d="M2 313v205q0 45 10.5 71.5t36.5 51.5l45 47l-45 47q-27 29 -37 58.5t-10 80.5v189h186v-189l185 -178v369h375v-209q0 -43 -10.5 -69.5t-37.5 -51.5l-45 -47l45 -47q29 -29 38.5 -58.5t9.5 -82.5v-187h-187v187l-192 178l4 -365h-371z" />
<glyph unicode="&#xd8;" d="M2 348v694q0 150 102 252q98 102 246 103h694q147 0 250 -103q98 -102 99 -247v-699q0 -147 -101 -248q-98 -100 -248 -100h-694q-147 0 -246 98q-102 109 -102 250zM352 1044l279 -315l229 315h-508zM680 352l360 -2v510z" />
<glyph unicode="&#xd9;" d="M0 356q0 -78 26.5 -142t75.5 -116q98 -98 248 -98h694q145 0 250 98q98 104 99 250v1045h-357v-1043h-684l330 344v703h-682v-1041zM418 1819l295 -320h205l-148 320h-352z" />
<glyph unicode="&#xda;" d="M0 356q0 -78 26.5 -142t75.5 -116q98 -98 248 -98h694q145 0 250 98q98 104 99 250v1045h-357v-1043h-684l330 344v703h-682v-1041zM475 1499h205l295 320h-352z" />
<glyph unicode="&#xdb;" d="M0 356q2 -156 102 -258q98 -98 248 -98h694q145 0 250 98q98 104 99 250v1045h-357l4 -1043h-688l330 344v703h-682v-1041zM303 1499h291l102 148l103 -148h293l-197 320h-391z" />
<glyph unicode="&#xdc;" d="M0 356q2 -156 102 -258q98 -98 248 -98h694q145 0 250 98q98 104 99 250v1045h-357l4 -1043h-688l330 344v703h-682v-1041zM303 1499h346v320h-346v-320zM745 1499h347v320h-347v-320z" />
<glyph unicode="&#xdd;" d="M2 1047v350h348v-350l320 -355h-437l-57 6l-86 86q-53 51 -70.5 109t-17.5 154zM475 1499l148 320h352l-295 -320h-205zM547 0v373q0 88 19.5 139t66.5 100l67 86v699h697v-381q0 -82 -23.5 -131t-68.5 -99l-410 -438v-348h-348z" />
<glyph unicode="&#xde;" d="M0 0v1397h676v-301h368q147 -4 248 -105q102 -102 103 -248v-34q0 -80 -20.5 -130.5t-67.5 -97.5l-349 -348l-262 262l348 348h-698l330 -368v-375h-676z" />
<glyph unicode="&#xdf;" d="M0 -147v1204q0 145 102 241q100 94 226 99h719q145 0 247.5 -102.5t102.5 -247.5v-35q0 -80 -20.5 -130.5t-67.5 -97.5l-84 -86l84 -86q25 -27 41 -52t27.5 -56t15.5 -69t4 -87q0 -145 -103 -248q-100 -100 -247 -100h-351v352h351l-269 353l269 342h-392v-342l-307 -357 v-495h-348z" />
<glyph unicode="&#xe0;" d="M-2 0v1047q0 145 100 245q100 104 250 105h692q150 0 248 -103q100 -100 101 -247v-1047h-349v348l-348 350v346h-344l348 -346v-698h-698zM418 1819h352l148 -320h-205z" />
<glyph unicode="&#xe1;" d="M-2 0v1047q0 145 100 245q100 104 250 105h692q150 0 248 -103q100 -100 101 -247v-1047h-349v348l-348 350v346h-344l348 -346v-698h-698zM475 1499l148 320h352l-295 -320h-205z" />
<glyph unicode="&#xe2;" d="M-2 0v1047q0 145 100 245q100 104 250 105h692q150 0 248 -103q100 -100 101 -247v-1047h-349v348l-348 350v346h-344l348 -346v-698h-698zM303 1499l201 320h391l197 -320h-293l-103 148l-102 -148h-291z" />
<glyph unicode="&#xe3;" d="M-2 0v1047q0 145 100 245q100 104 250 105h692q150 0 248 -103q100 -100 101 -247v-1047h-349v348l-348 350v346h-344l348 -346v-698h-698zM195 1499l188 320h354l97 -148l102 148h276l-188 -320h-373l-84 148l-102 -148h-270z" />
<glyph unicode="&#xe4;" d="M-2 0v1047q0 145 100 245q100 104 250 105h692q150 0 248 -103q100 -100 101 -247v-1047h-349v348l-348 350v346h-344l348 -346v-698h-698zM303 1499v320h346v-320h-346zM745 1499v320h347v-320h-347z" />
<glyph unicode="&#xe5;" d="M-2 0v1047q0 145 100 245q100 104 250 105h692q150 0 248 -103q100 -100 101 -247v-1047h-349v348l-348 350v346h-344l348 -346v-698h-698zM524 1499v320h346v-320h-346zM631 1597h133v132h-133v-132z" />
<glyph unicode="&#xe6;" horiz-adv-x="2732" d="M-2 0h698v694l344 -346v-348h1401v504l-4 16h-418l-114 -170h-504l348 348l-348 346h504l114 -167h418l4 10v510h-1042q-98 0 -180 -47q-78 47 -179 47h-692q-150 0 -250 -105q-100 -100 -100 -245v-1047zM348 1044h344v-342z" />
<glyph unicode="&#xe7;" d="M4 340q0 -141 98 -240q98 -100 248 -100h379v-72l-98 -104h-221v-236h501v269l-45 143h527v352h-711v350l-330 342h1041v353h-1043q-147 0 -250 -103q-96 -102 -96 -241v-713z" />
<glyph unicode="&#xe8;" d="M4 340v713q0 139 96 241q102 102 250 103h1043v-510l-4 -10h-418l-115 167h-504l348 -346l-348 -348h504l115 170h418l4 -16v-504h-1043q-150 0 -248 100q-98 99 -98 240zM418 1819h352l148 -320h-205z" />
<glyph unicode="&#xe9;" d="M4 340v713q0 139 96 241q102 102 250 103h1043v-510l-4 -10h-418l-115 167h-504l348 -346l-348 -348h504l115 170h418l4 -16v-504h-1043q-150 0 -248 100q-98 99 -98 240zM475 1499l148 320h352l-295 -320h-205z" />
<glyph unicode="&#xea;" d="M4 340v713q0 139 96 241q102 102 250 103h1043v-510l-4 -10h-418l-115 167h-504l348 -346l-348 -348h504l115 170h418l4 -16v-504h-1043q-150 0 -248 100q-98 99 -98 240zM303 1499l201 320h391l197 -320h-293l-103 148l-102 -148h-291z" />
<glyph unicode="&#xeb;" d="M4 340v713q0 139 96 241q102 102 250 103h1043v-510l-4 -10h-418l-115 167h-504l348 -346l-348 -348h504l115 170h418l4 -16v-504h-1043q-150 0 -248 100q-98 99 -98 240zM303 1499v320h346v-320h-346zM745 1499v320h347v-320h-347z" />
<glyph unicode="&#xec;" horiz-adv-x="970" d="M0 0h678v1397h-348v-320l-4 -33l-326 -346v-698zM82 1819l295 -320h205l-148 320h-352z" />
<glyph unicode="&#xed;" horiz-adv-x="970" d="M0 0h678v1397h-348v-320l-4 -33l-326 -346v-698zM115 1499h204l295 320h-352z" />
<glyph unicode="&#xee;" horiz-adv-x="970" d="M-41 1499h291l102 148l103 -148h293l-197 320h-391zM0 0h678v1397h-348v-320l-4 -33l-326 -346v-698z" />
<glyph unicode="&#xef;" horiz-adv-x="970" d="M-49 1499h344l2 320h-346v-320zM0 0h678v1397h-348v-320l-4 -33l-326 -346v-698zM393 1499h346v320h-346v-320z" />
<glyph unicode="&#xf0;" d="M0 348v33q0 84 20.5 134t67.5 97l348 349l262 -263l-348 -350h699l-330 371v678h678v-1397h-1047q-147 0 -246 98q-104 105 -104 250z" />
<glyph unicode="&#xf1;" d="M0 0v1040q2 150 100 254q102 102 250 103h694q147 0 246 -103q102 -102 103 -247v-1047h-349l-2 10v1034h-690l330 -342v-702h-682zM195 1499l188 320h354l97 -148l102 148h276l-188 -320h-373l-84 148l-102 -148h-270z" />
<glyph unicode="&#xf2;" d="M2 348v694q0 150 98 252q102 102 250 103h694q147 0 246 -103q102 -102 103 -247v-697q0 -147 -103 -250q-98 -100 -246 -100h-694q-150 0 -248 100q-100 101 -100 248zM352 1044l326 -342v-352h362v694h-688zM418 1819h352l148 -320h-205z" />
<glyph unicode="&#xf3;" d="M2 348v694q0 150 98 252q102 102 250 103h694q147 0 246 -103q102 -102 103 -247v-697q0 -147 -103 -250q-98 -100 -246 -100h-694q-150 0 -248 100q-100 101 -100 248zM352 1044l326 -342v-352h362v694h-688zM475 1499l148 320h352l-295 -320h-205z" />
<glyph unicode="&#xf4;" d="M2 348v694q0 150 98 252q102 102 250 103h694q147 0 246 -103q102 -102 103 -247v-697q0 -147 -103 -250q-98 -100 -246 -100h-694q-150 0 -248 100q-100 101 -100 248zM303 1499l201 320h391l197 -320h-293l-103 148l-102 -148h-291zM352 1044l326 -342v-352h362v694 h-688z" />
<glyph unicode="&#xf5;" d="M2 348v694q0 150 98 252q102 102 250 103h694q147 0 246 -103q102 -102 103 -247v-697q0 -147 -103 -250q-98 -100 -246 -100h-694q-150 0 -248 100q-100 101 -100 248zM195 1499l188 320h354l97 -148l102 148h276l-188 -320h-373l-84 148l-102 -148h-270zM352 1044 l326 -342v-352h362v694h-688z" />
<glyph unicode="&#xf6;" d="M2 348v694q0 150 98 252q102 102 250 103h694q147 0 246 -103q102 -102 103 -247v-697q0 -147 -103 -250q-98 -100 -246 -100h-694q-150 0 -248 100q-100 101 -100 248zM303 1499v320h346v-320h-346zM352 1044l326 -342v-352h362v694h-688zM745 1499v320h347v-320h-347z " />
<glyph unicode="&#xf7;" horiz-adv-x="1275" d="M0 526h1024v351h-1024v-351zM338 61h346v353h-346v-353zM338 1004h346v352h-346v-352z" />
<glyph unicode="&#xf8;" d="M2 350v699q0 147 100 247q98 100 248 101h694q147 0 246 -99q102 -109 103 -249v-695q0 -150 -103 -252q-98 -102 -246 -102h-694q-147 0 -250 102q-98 101 -98 248zM354 537l359 512l-359 -2v-510zM532 352h510l-278 316z" />
<glyph unicode="&#xf9;" d="M0 348v1049h352v-45v-1002h688l-329 344v703h682v-1041q-2 -156 -103 -258q-98 -98 -248 -98h-694q-145 0 -250 98q-98 105 -98 250zM418 1819h352l148 -320h-205z" />
<glyph unicode="&#xfa;" d="M0 348v1049h352v-45v-1002h688l-329 344v703h682v-1041q-2 -156 -103 -258q-98 -98 -248 -98h-694q-145 0 -250 98q-98 105 -98 250zM475 1499l148 320h352l-295 -320h-205z" />
<glyph unicode="&#xfb;" d="M0 348v1049h352v-45v-1002h688l-329 344v703h682v-1041q-2 -156 -103 -258q-98 -98 -248 -98h-694q-145 0 -250 98q-98 105 -98 250zM303 1499l201 320h391l197 -320h-293l-103 148l-102 -148h-291z" />
<glyph unicode="&#xfc;" d="M0 348v1049h352v-45v-1002h688l-329 344v703h682v-1041q-2 -156 -103 -258q-98 -98 -248 -98h-694q-145 0 -250 98q-98 105 -98 250zM303 1499v320h346v-320h-346zM745 1499v320h347v-320h-347z" />
<glyph unicode="&#xfd;" d="M2 1047v350h348v-350l320 -355h-437l-57 6l-86 86q-53 51 -70.5 109t-17.5 154zM475 1499l148 320h352l-295 -320h-205zM547 0v373q0 88 19.5 139t66.5 100l67 86v699h697v-381q0 -82 -23.5 -131t-68.5 -99l-410 -438v-348h-348z" />
<glyph unicode="&#xfe;" d="M0 0h676v301h368q147 4 248 105q102 102 103 247v35q0 80 -20.5 130t-67.5 97l-349 349l-262 -263l348 -348h-698l330 369v375h-676v-1397z" />
<glyph unicode="&#xff;" d="M2 1047v350h348v-350l320 -355h-437l-57 6l-86 86q-49 53 -68.5 110t-19.5 153zM303 1499v320h346v-320h-346zM547 0v373q0 88 19.5 139t66.5 100l67 86v691l13 8h684v-381q0 -82 -23.5 -131t-68.5 -99l-410 -438v-348h-348zM745 1499v320h347v-320h-347z" />
<glyph unicode="&#x152;" horiz-adv-x="2699" d="M4 340q0 -141 98 -240q98 -100 248 -100h2083v352h-711v176h412v351h-412v-177l-329 342h1040v353h-2083q-147 0 -250 -103q-96 -102 -96 -241v-713zM352 1044h692v-692h-362v350z" />
<glyph unicode="&#x153;" horiz-adv-x="2699" d="M4 340q0 -141 98 -240q98 -100 248 -100h2091v504l-4 16h-418l-114 -170h-504l348 348l-348 346h504l114 -167h418l4 10v510h-2091q-147 0 -250 -103q-96 -102 -96 -241v-713zM352 1044h701v-692h-371v350z" />
<glyph unicode="&#x178;" d="M2 1047v350h348v-350l320 -355h-437l-57 6l-86 86q-49 53 -68.5 110t-19.5 153zM303 1499v320h346v-320h-346zM547 0v373q0 88 19.5 139t66.5 100l67 86v691l13 8h684v-381q0 -82 -23.5 -131t-68.5 -99l-410 -438v-348h-348zM745 1499v320h347v-320h-347z" />
<glyph unicode="&#x2c6;" horiz-adv-x="1044" d="M8 1499l201 320h391l197 -320h-293l-103 148l-102 -148h-291z" />
<glyph unicode="&#x2dc;" horiz-adv-x="1101" d="M6 1499l189 320h354l96 -148l103 148h276l-188 -320h-373l-84 148l-103 -148h-270z" />
<glyph unicode="&#x2000;" horiz-adv-x="909" />
<glyph unicode="&#x2001;" horiz-adv-x="1818" />
<glyph unicode="&#x2002;" horiz-adv-x="909" />
<glyph unicode="&#x2003;" horiz-adv-x="1818" />
<glyph unicode="&#x2004;" horiz-adv-x="606" />
<glyph unicode="&#x2005;" horiz-adv-x="454" />
<glyph unicode="&#x2006;" horiz-adv-x="303" />
<glyph unicode="&#x2007;" horiz-adv-x="303" />
<glyph unicode="&#x2008;" horiz-adv-x="227" />
<glyph unicode="&#x2009;" horiz-adv-x="362" />
<glyph unicode="&#x200a;" horiz-adv-x="100" />
<glyph unicode="&#x2010;" horiz-adv-x="1021" d="M0 526h762v351h-762v-351z" />
<glyph unicode="&#x2011;" horiz-adv-x="1021" d="M0 526h762v351h-762v-351z" />
<glyph unicode="&#x2012;" horiz-adv-x="1021" d="M0 526h762v351h-762v-351z" />
<glyph unicode="&#x2013;" horiz-adv-x="1021" d="M0 526h762v351h-762v-351z" />
<glyph unicode="&#x2014;" horiz-adv-x="1286" d="M0 526v353h1001v-353h-1001z" />
<glyph unicode="&#x2018;" horiz-adv-x="628" d="M0 831h346v267l-90 90l-16 211h-144l-16 -211l-78 -92l-2 -6v-259z" />
<glyph unicode="&#x2019;" horiz-adv-x="628" d="M0 1143v258h346v-266l-90 -91l-16 -210h-144l-16 210l-78 93z" />
<glyph unicode="&#x201a;" horiz-adv-x="628" d="M0 96v256h346v-352l-86 -252h-94v252h-82l-82 90z" />
<glyph unicode="&#x201c;" horiz-adv-x="1101" d="M0 831h346v267l-90 90l-16 211h-144l-16 -211l-78 -92l-2 -6v-259zM475 831h346v267l-92 90l-14 211h-148l-10 -211l-80 -92l-2 -6v-259z" />
<glyph unicode="&#x201d;" horiz-adv-x="1101" d="M0 1143v258h346v-266l-90 -91l-16 -210h-144l-16 210l-78 93zM475 1143v258h346v-266l-92 -91l-14 -210h-148l-10 210l-80 93z" />
<glyph unicode="&#x201e;" horiz-adv-x="1085" d="M0 96v256h346v-352l-86 -252h-94v252h-82l-82 90zM457 96v256h346v-352l-86 -252h-94v252h-82l-82 90z" />
<glyph unicode="&#x2022;" d="M2 348q0 -147 100 -248q98 -100 248 -100h694q147 0 246 100q102 102 103 250v697q0 145 -103 247q-98 102 -246 103h-694q-147 0 -250 -103q-98 -102 -98 -252v-694z" />
<glyph unicode="&#x2026;" horiz-adv-x="1611" d="M0 0h346v352h-346v-352zM496 0h346v352h-346v-352zM999 0h347v352h-347v-352z" />
<glyph unicode="&#x202f;" horiz-adv-x="362" />
<glyph unicode="&#x2039;" horiz-adv-x="569" d="M0 500v391l319 201v-291l-147 -103l147 -102v-293z" />
<glyph unicode="&#x203a;" horiz-adv-x="569" d="M0 303l319 197v391l-319 201v-291l147 -103l-147 -102v-293z" />
<glyph unicode="&#x205f;" horiz-adv-x="454" />
<glyph unicode="&#x20ac;" horiz-adv-x="1832" d="M0 426h193v-86q0 -141 98 -240q98 -100 248 -100h1042v352h-711v74h424v238h-424v38l-39 39h463v238h-690l-63 65h1040v353h-1042q-147 0 -250 -103q-96 -102 -96 -241v-74h-193v-238h193v-79h-193v-236z" />
<glyph unicode="&#x2122;" horiz-adv-x="1232" d="M0 1280h229h11l-115 -123v-244h235v367h125v123h-485v-123zM528 913h183v148l-60 41v176l121 -121l123 121v-176l-59 -41v-148h182v367q0 49 -37 86q-35 35 -80 35h-260q-43 0 -78 -35q-35 -39 -35 -86v-367z" />
<glyph unicode="&#xe000;" horiz-adv-x="1400" d="M0 1400h1400v-1400h-1400v1400z" />
<glyph unicode="&#xfb01;" horiz-adv-x="2646" d="M1675 0v698l326 346l4 33v320h348v-1397h-678zM4 0h346v350l350 348l-348 346h504l115 -167h418l4 10v510h-1043q-147 0 -250 -103q-96 -100 -96 -237v-1057z" />
<glyph unicode="&#xfb02;" horiz-adv-x="3350" d="M1677 350v1047h692v-699l-342 -348h504l115 170h418l4 -4v-516h-1043q-150 0 -248 100q-100 100 -100 250zM4 0h346v350l350 348l-348 346h504l115 -167h418l4 10v510h-1043q-147 0 -250 -103q-96 -100 -96 -237v-1057z" />
<glyph unicode="&#xfb03;" horiz-adv-x="4321" d="M3351 0v698l326 346l4 33v320h348v-1397h-678zM1679 0h346v350l350 348l-348 346h504l115 -167h418l4 10v510h-1043q-147 0 -250 -103q-96 -100 -96 -237v-1057zM4 0h346v350l350 348l-348 346h504l115 -167h418l4 10v510h-1043q-147 0 -250 -103q-96 -100 -96 -237 v-1057z" />
<glyph unicode="&#xfb04;" horiz-adv-x="5025" d="M3353 350v1047h692v-699l-342 -348h504l115 170h418l4 -4v-516h-1043q-150 0 -248 100q-100 100 -100 250zM1679 0h346v350l350 348l-348 346h504l115 -167h418l4 10v510h-1043q-147 0 -250 -103q-96 -100 -96 -237v-1057zM4 0h346v350l350 348l-348 346h504l115 -167 h418l4 10v510h-1043q-147 0 -250 -103q-96 -100 -96 -237v-1057z" />
</font>
</defs>
</svg>
